<?xml version="1.0" encoding="UTF-8"?>
<svg xmlns="http://www.w3.org/2000/svg" width="900" height="520" viewBox="0 0 900 520" role="img">
<defs>
  <linearGradient id="bg" x1="0" x2="1" y1="0" y2="1">
    <stop offset="0" stop-color="#fffdf8"/>
    <stop offset="1" stop-color="#eef7fb"/>
  </linearGradient>
  <linearGradient id="card" x1="0" x2="1">
    <stop offset="0" stop-color="#ffffff"/>
    <stop offset="1" stop-color="#f8fbfd"/>
  </linearGradient>
  <filter id="shadow" x="-20%" y="-20%" width="140%" height="140%">
    <feDropShadow dx="0" dy="9" stdDeviation="11" flood-color="#17324d" flood-opacity="0.14"/>
  </filter>
  <filter id="soft" x="-30%" y="-30%" width="160%" height="160%">
    <feGaussianBlur stdDeviation="7"/>
  </filter>
  <style>
    text{font-family:Inter,Arial,Helvetica,sans-serif;fill:#102a43}
    .big{font-size:42px;font-weight:850}
    .mid{font-size:29px;font-weight:800}
    .label{font-size:23px;font-weight:750}
    .small{font-size:18px;font-weight:700}
    .tiny{font-size:15px;font-weight:650}
    .muted{fill:#52697d}
    .panel{fill:url(#card);stroke:#d5e2ea;stroke-width:2.5;filter:url(#shadow)}
    .thin{stroke:#6b879c;stroke-width:3;fill:none;stroke-linecap:round;stroke-linejoin:round}
    .arrow{stroke:#3b82f6;stroke-width:6;fill:none;stroke-linecap:round;stroke-linejoin:round}
  </style>
</defs>
<rect width="900" height="520" rx="28" fill="url(#bg)"/>
<circle cx="808" cy="60" r="80" fill="#3b82f6" opacity="0.06"/>
<circle cx="82" cy="470" r="110" fill="#3aa17e" opacity="0.055"/>
<circle cx="110" cy="255" r="22" fill="#468ed8"/><text x="110" y="263" text-anchor="middle" class="small" fill="#fff">n</text><path d="M142 255 L315 255 M315 255 L302.5 263.4 M315 255 L302.5 246.6" stroke="#3b82f6" stroke-width="6" fill="none" stroke-linecap="round" stroke-linejoin="round"/><circle cx="362" cy="229" r="18" fill="#ef5b72" stroke="#fff" stroke-width="2"/><circle cx="391" cy="221" r="18" fill="#468ed8" stroke="#fff" stroke-width="2"/><circle cx="422" cy="227" r="18" fill="#ef5b72" stroke="#fff" stroke-width="2"/><circle cx="442" cy="249" r="18" fill="#468ed8" stroke="#fff" stroke-width="2"/><circle cx="366" cy="259" r="18" fill="#468ed8" stroke="#fff" stroke-width="2"/><circle cx="397" cy="251" r="18" fill="#ef5b72" stroke="#fff" stroke-width="2"/><circle cx="428" cy="258" r="18" fill="#468ed8" stroke="#fff" stroke-width="2"/><circle cx="376" cy="288" r="18" fill="#ef5b72" stroke="#fff" stroke-width="2"/><circle cx="408" cy="286" r="18" fill="#468ed8" stroke="#fff" stroke-width="2"/><circle cx="437" cy="283" r="18" fill="#ef5b72" stroke="#fff" stroke-width="2"/><circle cx="347" cy="277" r="18" fill="#468ed8" stroke="#fff" stroke-width="2"/><path d="M485 255 L610 255 M610 255 L597.5 263.4 M610 255 L597.5 246.6" stroke="#2f9d73" stroke-width="6" fill="none" stroke-linecap="round" stroke-linejoin="round"/><circle cx="637" cy="229" r="18" fill="#ef5b72" stroke="#fff" stroke-width="2"/><circle cx="666" cy="221" r="18" fill="#468ed8" stroke="#fff" stroke-width="2"/><circle cx="697" cy="227" r="18" fill="#ef5b72" stroke="#fff" stroke-width="2"/><circle cx="717" cy="249" r="18" fill="#468ed8" stroke="#fff" stroke-width="2"/><circle cx="641" cy="259" r="18" fill="#468ed8" stroke="#fff" stroke-width="2"/><circle cx="672" cy="251" r="18" fill="#ef5b72" stroke="#fff" stroke-width="2"/><circle cx="703" cy="258" r="18" fill="#468ed8" stroke="#fff" stroke-width="2"/><circle cx="651" cy="288" r="18" fill="#ef5b72" stroke="#fff" stroke-width="2"/><circle cx="683" cy="286" r="18" fill="#468ed8" stroke="#fff" stroke-width="2"/><circle cx="712" cy="283" r="18" fill="#ef5b72" stroke="#fff" stroke-width="2"/><circle cx="622" cy="277" r="18" fill="#468ed8" stroke="#fff" stroke-width="2"/><circle cx="728" cy="272" r="18" fill="#468ed8" stroke="#fff" stroke-width="2"/><path d="M700 200 q20 -28 40 0 t40 0" stroke="#e5a41a" stroke-width="7" fill="none"/><text x="770" y="190" class="mid">γ</text><text x="450" y="90" text-anchor="middle" class="mid">n + target → compound* → product + γ</text><text x="450" y="455" text-anchor="middle" class="small muted">capture is reaction- and energy-dependent</text>
</svg>